# xmcd CD database file
# Copyright (C) 1995-1998 Ti Kan
#
# Track frame offsets:
#	150
#	17452
#	33147
#	48215
#	63100
#	75295
#	92560
#	101925
#	119895
#	129627
#
# Disc length: 1958 seconds
#
# Revision: 1
# Processed by: cddbd v1.4b41PL1 Copyright (c) Steve Scherf et al.
# Submitted via: CDex 1.30
#
DISCID=7407a40a
DTITLE=David Allan Coe - Nothing Sacred
DYEAR=2001
DGENRE=Country
TTITLE0=Nothing Sacred
TTITLE1=Pussy Whipped Again
TTITLE2=Cum Stains on the Pillow
TTITLE3=Linda Lovelace
TTITLE4=Fuck Aneta Briant
TTITLE5=Jimmy Buffett
TTITLE6=3 Biggest Lies
TTITLE7=Whips and Things
TTITLE8=Rails
TTITLE9=Master Bation Blues
EXTD=\n\nYEAR: 2001  ID3G:   2
EXTT0=
EXTT1=
EXTT2=
EXTT3=
EXTT4=
EXTT5=
EXTT6=
EXTT7=
EXTT8=
EXTT9=
PLAYORDER=
